<?xml version="1.0" standalone="no"?>
<!DOCTYPE svg PUBLIC "-//W3C//DTD SVG 20010904//EN"
 "http://www.w3.org/TR/2001/REC-SVG-20010904/DTD/svg10.dtd">
<svg version="1.0" xmlns="http://www.w3.org/2000/svg"
 width="16.000000pt" height="16.000000pt" viewBox="0 0 16.000000 16.000000"
 preserveAspectRatio="xMidYMid meet">
<metadata>
Created by potrace 1.11, written by Peter Selinger 2001-2013
</metadata>
<g transform="translate(0.000000,16.000000) scale(0.005333,-0.005333)"
fill="#000000" stroke="none">
<path d="M710 2904 c-14 -2 -56 -11 -93 -20 -227 -52 -376 -200 -434 -430 -27
-108 -24 -335 5 -437 62 -218 172 -357 497 -633 166 -140 242 -217 296 -299
103 -156 110 -390 14 -474 -47 -41 -97 -54 -192 -50 -66 3 -86 9 -121 32 -72
47 -86 87 -92 272 l-5 160 -219 3 -218 2 4 -182 c6 -201 19 -265 81 -382 69
-130 214 -233 384 -273 114 -26 359 -24 464 5 119 32 195 75 274 156 125 126
169 254 169 486 1 120 -3 158 -22 223 -62 216 -179 365 -491 626 -270 227
-357 343 -380 511 -11 82 3 184 33 234 38 64 93 91 191 91 109 0 158 -27 198
-107 25 -49 29 -71 34 -172 l6 -116 216 2 216 3 -3 124 c-6 218 -57 357 -171
472 -119 119 -255 168 -481 174 -74 2 -146 2 -160 -1z"/>
<path d="M1690 1540 l0 -1340 230 0 230 0 2 553 3 552 298 3 297 2 0 190 0
190 -300 0 -300 0 2 403 3 402 383 3 382 2 0 190 0 190 -615 0 -615 0 0 -1340z"/>
</g>
</svg>
